# xmcd
#
# Track frame offsets:
#  150
#  17945
#  34045
#  53395
#  63745
#  83695
#  101845
#  132220
#  150220
#  171820
#  188705
#
# Disc length: 2752 seconds
#
# Revision: 0
# Processed by: cddbd v1.4PL0 Copyright (c) Steve Scherf et al.
# Submitted via: AltoMP3_Maker 3.0
#
DISCID=810abe0b
DTITLE=John Johnson - So Good
DYEAR=1900
DGENRE=
TTITLE0=Some Day
TTITLE1=So Good
TTITLE2=Stop-Pretending
TTITLE3=Brother to Brother
TTITLE4=Communicate
TTITLE5=Difference in Me
TTITLE6=Listen to your Heart
TTITLE7=Are You Living
TTITLE8=Don't You wait
TTITLE9=Why can't We
TTITLE10=Sing My Song
EXTD=
EXTT0=
EXTT1=
EXTT2=
EXTT3=
EXTT4=
EXTT5=
EXTT6=
EXTT7=
EXTT8=
EXTT9=
EXTT10=
PLAYORDER=
